# xmcd
#
# Track frame offsets:
#	150
#	21125
#	45899
#	79912
#	98739
#
# Disc length: 1564 seconds
#
# Revision: 1
# Processed by: cddbd v1.5.2PL0 Copyright (c) Steve Scherf et al.
# Submitted via: audiograbber 1.83.01
#
DISCID=2c061a05
DTITLE=Toxic Temple - Afterlife
DYEAR=2012
DGENRE=Lokaal
TTITLE0=Toxic Temple - Fucked up
TTITLE1=Toxic Temple - Convinced on the inside
TTITLE2=Toxic Temple - Silent scream
TTITLE3=Toxic Temple - Area
TTITLE4=Toxic Temple - Arrogant prick
EXTD=
EXTT0=
EXTT1=
EXTT2=
EXTT3=
EXTT4=
PLAYORDER=
